<svg width="141" height="68" viewBox="0 0 141 68" fill="none" xmlns="http://www.w3.org/2000/svg">
<g clip-path="url(#clip0_3606_1029)">
<mask id="mask0_3606_1029" style="mask-type:luminance" maskUnits="userSpaceOnUse" x="0" y="-1" width="141" height="69">
<path d="M141 -0.00244141H0.75V67.9976H141V-0.00244141Z" fill="white"/>
</mask>
<g mask="url(#mask0_3606_1029)">
<path d="M0.750009 28.84L6.71496 27.4318C6.95355 29.6556 8.07063 30.9879 9.69743 30.9879C10.9512 30.9879 11.8665 30.2482 11.8665 29.0984V28.987C11.8665 28.1359 11.0531 27.3204 10.3742 26.9126C10.0683 26.7277 9.49354 26.3934 8.71267 25.9857L8.23764 25.7249C7.45895 25.355 6.81473 25.0563 6.33971 24.7979C5.89939 24.5371 5.28771 24.1673 4.57625 23.6505C3.8648 23.1313 3.32253 22.6121 2.91691 22.0929C2.13605 21.0569 1.42459 19.3144 1.42459 17.3514V16.9436C1.42459 14.6843 2.20329 12.9063 3.72814 11.536C5.28771 10.1657 7.35483 9.49951 9.96423 9.49951C14.708 9.49951 17.7946 12.0552 18.4366 16.9081L12.8448 18.2784C12.4717 16.166 11.4891 15.13 9.89698 15.13C8.7105 15.13 7.8624 15.7962 7.8624 16.6852V16.8322C7.8624 18.0176 9.08358 18.7952 11.4891 19.9806C13.6256 21.0545 15.0485 21.908 15.76 22.5386C17.5907 24.0559 18.5039 26.0591 18.5039 28.5034V28.9491C18.5039 31.3578 17.6558 33.2472 15.9617 34.6531C14.2677 36.0613 12.0639 36.7654 9.38508 36.7654C4.26824 36.7654 1.38555 34.1363 0.741333 28.8377" fill="white"/>
</g>
<path d="M19.4929 10.1704H27.9675L31.3903 22.394H31.4922L34.8803 10.1704H42.4742V36.1016H36.1015V24.4328H35.9996L33.0518 36.1016H28.9154L26.0023 24.4707H25.8657V36.1016H19.4929V10.1704Z" fill="white"/>
<path d="M54.6774 27.2113L52.9812 17.0597H52.8467L51.1527 27.2113H54.6774ZM55.66 33.2116H50.1354L49.6603 36.1015H42.6781L48.8122 10.021H57.5558L63.5207 36.1015H56.1307L55.6557 33.2116H55.66Z" fill="white"/>
<mask id="mask1_3606_1029" style="mask-type:luminance" maskUnits="userSpaceOnUse" x="0" y="-1" width="141" height="69">
<path d="M141 -0.00244141H0.75V67.9976H141V-0.00244141Z" fill="white"/>
</mask>
<g mask="url(#mask1_3606_1029)">
<path d="M70.7763 22.7282H72.0301C73.4204 22.7282 74.0994 21.9506 74.0994 20.3954V18.2475C74.0994 16.6544 73.4204 15.8768 72.0301 15.8768H70.7763V22.7306V22.7282ZM71.555 28.4702H70.7763V36.1016H63.7594V10.1704H72.5376C75.0451 10.1704 77.1144 10.8366 78.7065 12.1713C80.3333 13.4681 81.1467 15.4311 81.1467 18.0602V20.5424C81.1467 23.3209 80.1294 25.4332 78.1295 26.877L81.7237 36.1016H74.1319L71.555 28.4702Z" fill="white"/>
<path d="M81.3506 10.1681V16.5406H86.5021V36.1016H93.5191V16.5406H97.1978C97.2369 15.8934 97.2933 15.3411 97.3714 14.8029C97.5319 13.6792 97.8073 12.5483 98.1999 11.4388C98.3388 11.0382 98.4971 10.6375 98.6706 10.2392V10.1681H81.3506Z" fill="white"/>
<path d="M52.4563 46.0517C52.4563 44.2736 51.5757 43.3467 50.1853 43.3467H49.0335V57.2013H50.1853C51.5735 57.2013 52.4563 56.2743 52.4563 54.4963V46.0493V46.0517ZM56.8617 39.6436C58.5905 41.1632 59.4711 43.3111 59.4711 46.0161V54.501C59.4711 57.206 58.5905 59.3539 56.8617 60.9091C55.133 62.4667 52.9292 63.2443 50.2179 63.2443H42.0166V37.3131H50.2179C52.9292 37.3131 55.133 38.0907 56.8617 39.6459" fill="white"/>
</g>
<path d="M75.9582 57.0898V63.2395H60.5361V37.3083H75.8237V43.4581H67.5531V47.384H75.2468V53.3488H67.5531V57.0898H75.9582Z" fill="white"/>
<path d="M88.0204 54.3492L86.3264 44.1977H86.1897L84.4957 54.3492H88.0204ZM89.003 60.3495H83.4784L83.0034 63.2395H76.0211L82.1553 37.1589H90.8988L96.8637 63.2395H89.4737L88.9987 60.3495H89.003Z" fill="white"/>
<mask id="mask2_3606_1029" style="mask-type:luminance" maskUnits="userSpaceOnUse" x="0" y="-1" width="141" height="69">
<path d="M141 -0.00244141H0.75V67.9976H141V-0.00244141Z" fill="white"/>
</mask>
<g mask="url(#mask2_3606_1029)">
<path d="M108.451 56.7602H104.119V37.3107H97.1023V63.2395H109.516C108.804 61.5681 108.41 59.7094 108.41 57.756C108.41 57.4193 108.423 57.085 108.449 56.7602" fill="white"/>
<path d="M132.228 18.1859C131.69 19.9521 130.675 21.8724 129.753 23.5177C129.265 24.3878 128.773 25.2602 128.281 26.1326C127.15 28.1359 125.981 30.2079 124.845 32.2894C124.502 32.9153 124.185 33.5341 123.892 34.1481C122.734 33.9418 121.556 33.8375 120.37 33.8375C119.183 33.8375 118.006 33.9418 116.847 34.1505C116.557 33.5388 116.24 32.9177 115.897 32.2918C114.819 30.3122 113.709 28.3445 112.635 26.4432C112.086 25.4712 111.537 24.4992 110.993 23.5272C110.375 22.4177 109.902 21.5192 109.512 20.7036C109.071 19.7814 108.746 18.9659 108.525 18.2262C108.436 17.9346 108.397 17.7615 108.379 17.6738C108.397 17.2589 108.42 16.9413 108.455 16.7066C108.494 16.4387 108.564 16.1589 108.668 15.8673L108.694 15.7891C108.783 15.533 108.904 15.2699 109.065 14.9854C109.245 14.663 109.412 14.4022 109.598 14.1509C109.778 13.9043 109.939 13.7052 110.112 13.5084C110.498 13.0722 110.921 12.6715 111.366 12.3278L111.427 12.278C111.976 11.8442 112.613 11.4364 113.323 11.0666C114.418 10.4976 115.385 10.1277 116.459 9.86933L116.581 9.83851C116.75 9.79584 116.962 9.75079 117.21 9.70575C118.199 9.52557 119.229 9.44023 120.366 9.44023C121.305 9.44023 122.17 9.49949 122.94 9.61803L123.001 9.62751C124.372 9.82666 125.569 10.1823 126.769 10.7512L126.86 10.7939C127.044 10.8793 127.22 10.9694 127.391 11.0594C129.001 11.8963 130.213 12.8991 131.111 14.1248L131.155 14.1817C131.226 14.2765 131.306 14.3951 131.402 14.5397C131.888 15.2841 132.174 15.993 132.276 16.7066C132.315 16.9697 132.341 17.3016 132.354 17.6975C132.337 17.7805 132.3 17.937 132.222 18.1883M140.989 17.5339C140.967 16.7682 140.915 16.0048 140.807 15.2509C140.492 13.0461 139.688 10.9883 138.436 9.06802C138.254 8.79064 138.065 8.51089 137.857 8.23352C136.139 5.88174 133.885 3.98515 131.12 2.54611C130.823 2.39201 130.515 2.23554 130.196 2.08855C128.528 1.30147 126.573 0.625805 124.138 0.272565C123.007 0.0923883 121.754 -0.00244141 120.372 -0.00244141C118.672 -0.00244141 117.164 0.144545 115.808 0.388731C115.39 0.464595 114.988 0.549942 114.605 0.649513C112.648 1.12129 111.032 1.80643 109.616 2.54137C108.438 3.15539 107.353 3.84764 106.364 4.63236C105.466 5.32936 104.646 6.10933 103.902 6.94858C103.54 7.35871 103.197 7.78545 102.874 8.22878C102.447 8.80961 102.067 9.40229 101.727 10.0116C101.278 10.8058 100.907 11.6166 100.616 12.4558C100.295 13.3567 100.063 14.286 99.9242 15.2462C99.8158 16.0001 99.7702 16.7658 99.7442 17.5292C99.7095 18.7667 99.9633 19.9782 100.323 21.1683C100.725 22.503 101.256 23.8022 101.861 25.0705C102.406 26.2085 103.006 27.3322 103.627 28.4441C105.241 31.3317 106.896 34.2121 108.479 37.1186C109.364 38.7426 110.104 40.4258 110.518 42.1968C110.718 43.0194 110.806 43.8539 110.893 44.6837C110.95 45.1934 111.149 45.3949 111.739 45.3949H113.474C115.483 44.0507 117.839 43.2707 120.37 43.2707C122.901 43.2707 125.259 44.0507 127.265 45.3949H129.007C129.591 45.3949 129.792 45.191 129.844 44.6837C129.94 43.8539 130.027 43.0171 130.22 42.1968C130.643 40.4258 131.374 38.7426 132.263 37.1186C133.849 34.2097 135.497 31.3317 137.115 28.4441C138.434 26.0947 139.646 23.705 140.419 21.1659C140.781 19.9758 141.037 18.762 140.993 17.5268" fill="#4EBCC2"/>
<path d="M120.372 67.9976C117.043 67.9976 114.119 66.101 112.461 63.2419C111.537 61.6559 111.002 59.7782 111.002 57.756C111.002 57.4217 111.015 57.0898 111.045 56.7603C111.503 51.5684 115.5 47.5096 120.372 47.5096C125.545 47.5096 129.742 52.097 129.742 57.756C129.742 63.415 125.545 67.9976 120.372 67.9976Z" fill="#4EBCC2"/>
</g>
</g>
<defs>
<clipPath id="clip0_3606_1029">
<rect width="140.25" height="68" fill="white" transform="translate(0.75 -0.00244141)"/>
</clipPath>
</defs>
</svg>
