<svg width="141" height="68" viewBox="0 0 141 68" fill="none" xmlns="http://www.w3.org/2000/svg">
<g clip-path="url(#clip0_5307_2075)">
<mask id="mask0_5307_2075" style="mask-type:luminance" maskUnits="userSpaceOnUse" x="0" y="0" width="141" height="68">
<path d="M141 0H0.75V68H141V0Z" fill="white"/>
</mask>
<g mask="url(#mask0_5307_2075)">
<path d="M0.749887 28.8425L6.71483 27.4342C6.95343 29.658 8.0705 30.9904 9.69731 30.9904C10.951 30.9904 11.8664 30.2507 11.8664 29.1009V28.9895C11.8664 28.1384 11.053 27.3228 10.3741 26.9151C10.0682 26.7301 9.49341 26.3959 8.71255 25.9881L8.23752 25.7273C7.45883 25.3575 6.81461 25.0588 6.33958 24.8004C5.89926 24.5396 5.28759 24.1697 4.57613 23.6529C3.86467 23.1337 3.32241 22.6145 2.91679 22.0953C2.13592 21.0593 1.42447 19.3168 1.42447 17.3539V16.9461C1.42447 14.6868 2.20317 12.9087 3.72802 11.5384C5.28758 10.1681 7.35471 9.50195 9.9641 9.50195C14.7079 9.50195 17.7945 12.0576 18.4365 16.9105L12.8446 18.2808C12.4715 16.1685 11.489 15.1325 9.89686 15.1325C8.71038 15.1325 7.86227 15.7986 7.86227 16.6877V16.8347C7.86227 18.02 9.08346 18.7976 11.489 19.983C13.6255 21.057 15.0484 21.9104 15.7599 22.541C17.5906 24.0583 18.5037 26.0616 18.5037 28.5058V28.9515C18.5037 31.3602 17.6556 33.2497 15.9616 34.6555C14.2675 36.0637 12.0638 36.7679 9.38496 36.7679C4.26812 36.7679 1.38543 34.1387 0.741211 28.8401" fill="white"/>
</g>
<path d="M19.4932 10.1729H27.9677L31.3905 22.3964H31.4925L34.8806 10.1729H42.4745V36.104H36.1017V24.4352H35.9998L33.052 36.104H28.9156L26.0025 24.4732H25.8659V36.104H19.4932V10.1729Z" fill="white"/>
<path d="M54.6775 27.2137L52.9813 17.0622H52.8468L51.1528 27.2137H54.6775ZM55.6601 33.214H50.1355L49.6605 36.104H42.6782L48.8124 10.0234H57.5559L63.5208 36.104H56.1308L55.6558 33.214H55.6601Z" fill="white"/>
<mask id="mask1_5307_2075" style="mask-type:luminance" maskUnits="userSpaceOnUse" x="0" y="0" width="141" height="68">
<path d="M141 0H0.75V68H141V0Z" fill="white"/>
</mask>
<g mask="url(#mask1_5307_2075)">
<path d="M70.7762 22.7307H72.0299C73.4203 22.7307 74.0992 21.9531 74.0992 20.3979V18.25C74.0992 16.6568 73.4203 15.8792 72.0299 15.8792H70.7762V22.733V22.7307ZM71.5549 28.4726H70.7762V36.104H63.7593V10.1729H72.5375C75.045 10.1729 77.1143 10.839 78.7064 12.1738C80.3332 13.4706 81.1466 15.4335 81.1466 18.0627V20.5448C81.1466 23.3234 80.1293 25.4357 78.1294 26.8795L81.7235 36.104H74.1318L71.5549 28.4726Z" fill="white"/>
<path d="M81.3506 10.1704V16.543H86.5021V36.104H93.5191V16.543H97.1978C97.2369 15.8958 97.2933 15.3434 97.3714 14.8052C97.5319 13.6815 97.8073 12.5506 98.1999 11.4411C98.3388 11.0405 98.4971 10.6398 98.6706 10.2415V10.1704H81.3506Z" fill="white"/>
<path d="M52.4563 46.054C52.4563 44.2759 51.5757 43.349 50.1853 43.349H49.0335V57.2036H50.1853C51.5735 57.2036 52.4563 56.2766 52.4563 54.4986V46.0516V46.054ZM56.8617 39.6459C58.5905 41.1655 59.4711 43.3134 59.4711 46.0184V54.5033C59.4711 57.2083 58.5905 59.3562 56.8617 60.9114C55.133 62.469 52.9292 63.2466 50.2179 63.2466H42.0166V37.3154H50.2179C52.9292 37.3154 55.133 38.093 56.8617 39.6482" fill="white"/>
</g>
<path d="M75.9582 57.0923V63.242H60.5361V37.3108H75.8237V43.4605H67.5531V47.3864H75.2468V53.3512H67.5531V57.0923H75.9582Z" fill="white"/>
<path d="M88.0203 54.3516L86.3263 44.2001H86.1896L84.4956 54.3516H88.0203ZM89.0029 60.352H83.4783L83.0032 63.2419H76.021L82.1551 37.1614H90.8987L96.8636 63.2419H89.4736L88.9986 60.352H89.0029Z" fill="white"/>
<mask id="mask2_5307_2075" style="mask-type:luminance" maskUnits="userSpaceOnUse" x="0" y="0" width="141" height="68">
<path d="M141 0H0.75V68H141V0Z" fill="white"/>
</mask>
<g mask="url(#mask2_5307_2075)">
<path d="M108.451 56.7628H104.119V37.3132H97.1025V63.242H109.516C108.805 61.5707 108.41 59.712 108.41 57.7585C108.41 57.4219 108.423 57.0876 108.449 56.7628" fill="white"/>
<path d="M132.228 18.1883C131.69 19.9545 130.675 21.8748 129.753 23.5201C129.265 24.3902 128.773 25.2626 128.281 26.1351C127.151 28.1383 125.981 30.2104 124.845 32.2919C124.502 32.9178 124.185 33.5365 123.893 34.1505C122.734 33.9443 121.557 33.84 120.37 33.84C119.184 33.84 118.006 33.9443 116.848 34.1529C116.557 33.5413 116.24 32.9201 115.897 32.2943C114.819 30.3147 113.709 28.347 112.635 26.4456C112.086 25.4736 111.538 24.5016 110.993 23.5296C110.375 22.4201 109.902 21.5216 109.512 20.7061C109.071 19.7838 108.746 18.9683 108.525 18.2286C108.436 17.937 108.397 17.764 108.379 17.6763C108.397 17.2614 108.421 16.9437 108.455 16.709C108.494 16.4411 108.564 16.1614 108.668 15.8698L108.694 15.7915C108.783 15.5355 108.904 15.2723 109.065 14.9878C109.245 14.6654 109.412 14.4046 109.598 14.1533C109.779 13.9068 109.939 13.7076 110.113 13.5109C110.499 13.0746 110.922 12.674 111.366 12.3302L111.427 12.2804C111.976 11.8466 112.613 11.4388 113.323 11.069C114.418 10.5 115.386 10.1302 116.459 9.87177L116.581 9.84095C116.75 9.79828 116.962 9.75323 117.21 9.70819C118.199 9.52801 119.229 9.44267 120.366 9.44267C121.305 9.44267 122.17 9.50194 122.94 9.62047L123.001 9.62996C124.372 9.8291 125.569 10.1847 126.769 10.7537L126.86 10.7964C127.044 10.8817 127.22 10.9718 127.391 11.0619C129.001 11.8988 130.213 12.9016 131.111 14.1273L131.155 14.1842C131.226 14.279 131.307 14.3975 131.402 14.5421C131.888 15.2865 132.174 15.9954 132.276 16.709C132.315 16.9721 132.341 17.3041 132.354 17.7C132.337 17.7829 132.3 17.9394 132.222 18.1907M140.989 17.5364C140.968 16.7706 140.916 16.0073 140.807 15.2534C140.493 13.0486 139.688 10.9908 138.436 9.07046C138.254 8.79308 138.065 8.51334 137.857 8.23596C136.139 5.88418 133.886 3.98759 131.12 2.54855C130.823 2.39445 130.515 2.23798 130.196 2.09099C128.528 1.30391 126.574 0.628247 124.138 0.275006C123.008 0.0948297 121.754 0 120.372 0C118.672 0 117.164 0.146986 115.809 0.391172C115.39 0.467036 114.989 0.552383 114.605 0.651954C112.648 1.12373 111.032 1.80888 109.616 2.54381C108.438 3.15783 107.353 3.85009 106.364 4.6348C105.466 5.3318 104.646 6.11177 103.902 6.95102C103.54 7.36116 103.198 7.78789 102.874 8.23122C102.447 8.81205 102.067 9.40474 101.727 10.014C101.278 10.8082 100.907 11.619 100.616 12.4583C100.295 13.3591 100.063 14.2885 99.9244 15.2486C99.816 16.0025 99.7704 16.7683 99.7444 17.5316C99.7097 18.7692 99.9635 19.9806 100.324 21.1707C100.725 22.5055 101.256 23.8046 101.861 25.073C102.406 26.2109 103.007 27.3347 103.627 28.4465C105.241 31.3341 106.896 34.2146 108.479 37.1211C109.364 38.745 110.104 40.4283 110.518 42.1992C110.718 43.0219 110.807 43.8564 110.893 44.6861C110.95 45.1958 111.149 45.3973 111.739 45.3973H113.475C115.483 44.0531 117.839 43.2732 120.37 43.2732C122.901 43.2732 125.259 44.0531 127.266 45.3973H129.007C129.591 45.3973 129.793 45.1935 129.845 44.6861C129.94 43.8564 130.027 43.0195 130.22 42.1992C130.643 40.4283 131.374 38.745 132.263 37.1211C133.849 34.2122 135.497 31.3341 137.115 28.4465C138.434 26.0971 139.647 23.7074 140.419 21.1684C140.781 19.9782 141.037 18.7644 140.994 17.5293" fill="#4EBCC2"/>
<path d="M120.372 67.9999C117.043 67.9999 114.119 66.1033 112.462 63.2442C111.538 61.6582 111.002 59.7806 111.002 57.7583C111.002 57.424 111.015 57.0921 111.045 56.7626C111.503 51.5707 115.501 47.512 120.372 47.512C125.546 47.512 129.743 52.0993 129.743 57.7583C129.743 63.4173 125.546 67.9999 120.372 67.9999Z" fill="#4EBCC2"/>
</g>
</g>
<defs>
<clipPath id="clip0_5307_2075">
<rect width="140.25" height="68" fill="white" transform="translate(0.75)"/>
</clipPath>
</defs>
</svg>
