<svg width="126" height="56" viewBox="0 0 126 56" fill="none" xmlns="http://www.w3.org/2000/svg">
<g clip-path="url(#clip0_5307_730)">
<mask id="mask0_5307_730" style="mask-type:luminance" maskUnits="userSpaceOnUse" x="0" y="0" width="126" height="56">
<path d="M126 0H0V56H126V0Z" fill="white"/>
</mask>
<g mask="url(#mask0_5307_730)">
<path d="M-1.77631e-05 23.7527L5.35886 22.593C5.57322 24.4243 6.57679 25.5215 8.03831 25.5215C9.16465 25.5215 9.98699 24.9124 9.98699 23.9655V23.8737C9.98699 23.1728 9.25623 22.5012 8.64629 22.1654C8.37153 22.0131 7.85513 21.7378 7.1536 21.402L6.72684 21.1873C6.02726 20.8827 5.4485 20.6367 5.02174 20.4239C4.62616 20.2091 4.07663 19.9045 3.43746 19.4789C2.79829 19.0514 2.31112 18.6238 1.94672 18.1962C1.24519 17.343 0.606023 15.908 0.606023 14.2915V13.9557C0.606023 12.095 1.3056 10.6308 2.67553 9.50229C4.07663 8.37381 5.93373 7.8252 8.27799 7.8252C12.5398 7.8252 15.3127 9.92986 15.8896 13.9264L10.8658 15.0548C10.5307 13.3153 9.64792 12.4621 8.21758 12.4621C7.15165 12.4621 6.38972 13.0107 6.38972 13.7428V13.8639C6.38972 14.8401 7.48683 15.4805 9.64792 16.4567C11.5674 17.3411 12.8457 18.0439 13.4849 18.5633C15.1296 19.8128 15.95 21.4625 15.95 23.4754V23.8425C15.95 25.8261 15.188 27.3821 13.6661 28.5399C12.1442 29.6996 10.1643 30.2795 7.75769 30.2795C3.16075 30.2795 0.570947 28.1143 -0.0078125 23.7507" fill="#5D2784"/>
</g>
<path d="M16.8384 8.37744H24.4519L27.5269 18.4439H27.6185L30.6623 8.37744H37.4847V29.7325H31.7595V20.1229H31.6679L29.0196 29.7325H25.3035L22.6864 20.1542H22.5636V29.7325H16.8384V8.37744Z" fill="#5D2784"/>
<path d="M48.4481 22.4116L46.9242 14.0515H46.8034L45.2815 22.4116H48.4481ZM49.3308 27.353H44.3675L43.9408 29.733H37.668L43.1788 8.25488H51.034L56.3929 29.733H49.7537L49.3269 27.353H49.3308Z" fill="#5D2784"/>
<mask id="mask1_5307_730" style="mask-type:luminance" maskUnits="userSpaceOnUse" x="0" y="0" width="126" height="56">
<path d="M126 0H0V56H126V0Z" fill="white"/>
</mask>
<g mask="url(#mask1_5307_730)">
<path d="M62.9114 18.7192H64.0378C65.2869 18.7192 65.8968 18.0788 65.8968 16.798V15.0292C65.8968 13.7172 65.2869 13.0768 64.0378 13.0768H62.9114V18.7211V18.7192ZM63.611 23.4478H62.9114V29.7325H56.6074V8.37744H64.4937C66.7464 8.37744 68.6055 8.92606 70.0358 10.0252C71.4973 11.0932 72.2281 12.7098 72.2281 14.8749V16.9191C72.2281 19.2073 71.3141 20.9468 69.5175 22.1358L72.7464 29.7325H65.926L63.611 23.4478Z" fill="#5D2784"/>
<path d="M72.4111 8.37549V13.6235H77.0393V29.7325H83.3433V13.6235H86.6482C86.6833 13.0905 86.734 12.6356 86.8041 12.1924C86.9483 11.267 87.1958 10.3357 87.5485 9.42196C87.6732 9.09201 87.8155 8.76206 87.9714 8.43406V8.37549H72.4111Z" fill="#5D2784"/>
<path d="M46.4528 37.9264C46.4528 36.4622 45.6616 35.6988 44.4125 35.6988H43.3777V47.1085H44.4125C45.6596 47.1085 46.4528 46.3451 46.4528 44.8808V37.9245V37.9264ZM50.4105 32.6492C51.9636 33.9006 52.7548 35.6695 52.7548 37.8972V44.8847C52.7548 47.1124 51.9636 48.8812 50.4105 50.162C48.8574 51.4447 46.8776 52.0851 44.4417 52.0851H37.0737V30.73H44.4417C46.8776 30.73 48.8574 31.3704 50.4105 32.6511" fill="#5D2784"/>
</g>
<path d="M67.5666 47.0172V52.0817H53.7114V30.7266H67.4458V35.791H60.0154V39.0242H66.9274V43.9363H60.0154V47.0172H67.5666Z" fill="#5D2784"/>
<path d="M78.4032 44.7602L76.8813 36.4001H76.7585L75.2366 44.7602H78.4032ZM79.2859 49.7017H74.3226L73.8959 52.0816H67.623L73.1339 30.6035H80.9891L86.348 52.0816H79.7088L79.282 49.7017H79.2859Z" fill="#5D2784"/>
<mask id="mask2_5307_730" style="mask-type:luminance" maskUnits="userSpaceOnUse" x="0" y="0" width="126" height="56">
<path d="M126 0H0V56H126V0Z" fill="white"/>
</mask>
<g mask="url(#mask2_5307_730)">
<path d="M96.758 46.7458H92.8665V30.7285H86.5625V52.0817H97.7148C97.0757 50.7052 96.721 49.1746 96.721 47.5658C96.721 47.2886 96.7327 47.0133 96.7561 46.7458" fill="#5D2784"/>
<path d="M118.119 14.9786C117.636 16.4331 116.724 18.0146 115.896 19.3695C115.458 20.086 115.015 20.8045 114.573 21.523C113.558 23.1727 112.507 24.8791 111.486 26.5933C111.178 27.1087 110.894 27.6183 110.631 28.124C109.59 27.9541 108.532 27.8682 107.466 27.8682C106.4 27.8682 105.342 27.9541 104.301 28.1259C104.04 27.6222 103.756 27.1107 103.448 26.5953C102.479 24.965 101.482 23.3446 100.517 21.7788C100.024 20.9783 99.531 20.1778 99.0418 19.3773C98.4865 18.4636 98.0616 17.7237 97.7109 17.052C97.3153 16.2926 97.023 15.621 96.8242 15.0118C96.7443 14.7717 96.7093 14.6292 96.6937 14.5569C96.7093 14.2152 96.7307 13.9536 96.7619 13.7603C96.7969 13.5397 96.8593 13.3093 96.9528 13.0692L96.9762 13.0048C97.0561 12.7939 97.1652 12.5772 97.3094 12.3429C97.4712 12.0774 97.6212 11.8626 97.7888 11.6557C97.9506 11.4526 98.0948 11.2886 98.2507 11.1266C98.5975 10.7674 98.9775 10.4374 99.377 10.1543L99.4316 10.1133C99.9246 9.75602 100.497 9.42021 101.135 9.11564C102.119 8.64707 102.988 8.3425 103.953 8.12969L104.062 8.10431C104.214 8.06917 104.405 8.03207 104.627 7.99498C105.515 7.8466 106.441 7.77631 107.462 7.77631C108.306 7.77631 109.083 7.82512 109.775 7.92274L109.83 7.93055C111.061 8.09455 112.137 8.38741 113.215 8.85598L113.296 8.89112C113.462 8.96141 113.62 9.0356 113.774 9.10979C115.22 9.79897 116.309 10.6248 117.116 11.6342L117.155 11.6811C117.219 11.7592 117.291 11.8568 117.377 11.9759C117.814 12.5889 118.071 13.1727 118.162 13.7603C118.197 13.9771 118.221 14.2504 118.232 14.5764C118.217 14.6448 118.184 14.7736 118.114 14.9806M125.99 14.4417C125.971 13.8111 125.924 13.1824 125.826 12.5616C125.544 10.7459 124.821 9.05121 123.697 7.46979C123.533 7.24136 123.363 7.01098 123.176 6.78255C121.633 4.8458 119.608 3.2839 117.124 2.0988C116.857 1.9719 116.58 1.84304 116.294 1.722C114.795 1.07381 113.039 0.51738 110.851 0.226476C109.836 0.078095 108.709 0 107.468 0C105.94 0 104.586 0.121047 103.368 0.322142C102.992 0.384618 102.631 0.454904 102.286 0.536903C100.529 0.925426 99.0769 1.48966 97.8044 2.0949C96.7463 2.60056 95.7719 3.17066 94.8833 3.81689C94.0766 4.39089 93.34 5.03323 92.6716 5.72437C92.3461 6.06213 92.0383 6.41356 91.7479 6.77865C91.364 7.25698 91.023 7.74508 90.717 8.24684C90.3137 8.90088 89.9804 9.56859 89.7193 10.2597C89.4309 11.0016 89.2224 11.767 89.0977 12.5577C89.0003 13.1785 88.9593 13.8092 88.936 14.4378C88.9048 15.457 89.1328 16.4546 89.4563 17.4347C89.8168 18.5339 90.2942 19.6038 90.8379 20.6483C91.327 21.5855 91.8668 22.5109 92.4241 23.4266C93.8739 25.8046 95.3608 28.1767 96.7833 30.5703C97.5784 31.9077 98.2429 33.2939 98.6151 34.7523C98.7943 35.4298 98.8742 36.117 98.9522 36.8003C99.0029 37.2201 99.1821 37.386 99.7122 37.386H101.271C103.076 36.279 105.192 35.6367 107.466 35.6367C109.74 35.6367 111.858 36.279 113.661 37.386H115.226C115.75 37.386 115.931 37.2181 115.978 36.8003C116.064 36.117 116.142 35.4278 116.315 34.7523C116.695 33.2939 117.352 31.9077 118.151 30.5703C119.575 28.1747 121.056 25.8046 122.51 23.4266C123.695 21.4918 124.784 19.5238 125.478 17.4328C125.803 16.4527 126.033 15.4531 125.994 14.4359" fill="#4EBCC2"/>
<path d="M107.468 55.9999C104.477 55.9999 101.85 54.438 100.361 52.0834C99.5311 50.7773 99.0498 49.231 99.0498 47.5656C99.0498 47.2903 99.0615 47.017 99.0888 46.7456C99.4999 42.4699 103.091 39.1274 107.468 39.1274C112.116 39.1274 115.886 42.9053 115.886 47.5656C115.886 52.2259 112.116 55.9999 107.468 55.9999Z" fill="#4EBCC2"/>
</g>
</g>
<defs>
<clipPath id="clip0_5307_730">
<rect width="126" height="56" fill="white"/>
</clipPath>
</defs>
</svg>
