<svg width="24" height="24" viewBox="0 0 24 24" fill="none" xmlns="http://www.w3.org/2000/svg">
<path d="M11 6.99756H13V8.99756H11V6.99756ZM11 10.9976H13V16.9976H11V10.9976ZM12 1.99756C6.48 1.99756 2 6.47756 2 11.9976C2 17.5176 6.48 21.9976 12 21.9976C17.52 21.9976 22 17.5176 22 11.9976C22 6.47756 17.52 1.99756 12 1.99756ZM12 19.9976C7.59 19.9976 4 16.4076 4 11.9976C4 7.58756 7.59 3.99756 12 3.99756C16.41 3.99756 20 7.58756 20 11.9976C20 16.4076 16.41 19.9976 12 19.9976Z" fill="#FF0000"/>
</svg>
